<svg width="128" height="128" viewBox="0 0 128 128" fill="none" xmlns="http://www.w3.org/2000/svg">
<rect width="128" height="128" rx="12" fill="white"/>
<path d="M8 48.5333C8 34.3453 8 27.2513 10.7612 21.8322C13.19 17.0655 17.0655 13.19 21.8322 10.7612C27.2513 8 34.3453 8 48.5333 8H79.4667C93.6547 8 100.749 8 106.168 10.7612C110.935 13.19 114.81 17.0655 117.239 21.8322C120 27.2513 120 34.3453 120 48.5333V79.4667C120 93.6547 120 100.749 117.239 106.168C114.81 110.935 110.935 114.81 106.168 117.239C100.749 120 93.6547 120 79.4667 120H48.5333C34.3453 120 27.2513 120 21.8322 117.239C17.0655 114.81 13.19 110.935 10.7612 106.168C8 100.749 8 93.6547 8 79.4667V48.5333Z" fill="#001E36"/>
<path d="M32 90.065V40.8137C32 40.4786 32.14 40.2872 32.4667 40.2872C37.2892 40.2872 42.1095 40 46.9333 40C54.7606 40 63.2359 42.6764 66.2067 50.865C66.9067 52.8752 67.28 54.9333 67.28 57.0872C67.28 61.2034 66.3467 64.6017 64.48 67.2821C59.2657 74.7693 50.228 74.653 42.1267 74.653V90.0171C42.19 90.472 41.8024 90.6872 41.4267 90.6872H32.56C32.1867 90.6872 32 90.4957 32 90.065ZM42.1733 49.5248V65.6068C45.3855 65.8422 48.7469 65.8677 51.8333 64.841C55.2406 63.8582 57.1067 60.9086 57.1067 57.3744C57.2014 54.3628 55.5603 51.4732 52.7667 50.3863C49.7175 49.1185 45.4648 49.0425 42.1733 49.5248Z" fill="#31A8FF"/>
<path d="M96.3866 62.4295C94.9746 61.6854 93.4708 61.141 91.9162 60.8112C89.9184 60.3411 82.0391 58.6948 82.0362 62.8148C82.1061 65.1149 85.7572 66.2418 87.3705 66.8989C93.0339 68.8433 99.4427 72.3189 99.3168 79.3056C99.4899 88.0033 91.0629 91.4802 83.8393 91.481C80.0787 91.52 76.1611 90.9375 72.7195 89.3233C72.391 89.1494 72.1795 88.7775 72.1936 88.3986V80.0761C72.1566 79.7425 72.5147 79.4508 72.7947 79.6909C76.1668 81.7302 80.1637 82.7203 84.0646 82.7732C85.7867 82.7732 89.1997 82.6063 89.1738 80.0761C89.1738 77.6481 85.091 76.5317 83.4636 75.9149C81.1044 75.0727 78.8676 73.9062 76.8142 72.4472C73.9447 70.4004 72.1446 67.1187 72.1936 63.5083C72.1768 55.3188 79.9339 51.6428 86.9198 51.6411C90.1856 51.6142 93.6926 51.856 96.7327 53.1823C97.1699 53.311 97.2605 53.7714 97.2586 54.1841V61.9671C97.2864 62.4502 96.7498 62.6147 96.3866 62.4295Z" fill="#31A8FF"/>
</svg>
