<svg width="128" height="128" viewBox="0 0 128 128" fill="none" xmlns="http://www.w3.org/2000/svg">
<rect width="128" height="128" rx="12" fill="white"/>
<path d="M90.2484 49.8295C89.9429 50.0078 82.6683 53.7699 82.6683 62.1114C83.0112 71.6244 91.8484 74.9605 92 74.9605C91.8484 75.1388 90.6658 79.5051 87.1627 84.0822C84.3826 88.0249 81.2969 92 76.6111 92C72.154 92 70.554 89.3723 65.4111 89.3723C59.8881 89.3723 58.3254 92 54.0968 92C49.4111 92 46.0968 87.8119 43.1651 83.9062C39.3564 78.7944 36.1191 70.7724 36.0048 63.0699C35.9278 58.9883 36.7676 54.9761 38.8992 51.5682C41.9079 46.8106 47.2794 43.581 53.1452 43.4745C57.6397 43.3332 61.6397 46.3499 64.3825 46.3499C67.0111 46.3499 71.9254 43.4745 77.4857 43.4745C79.8857 43.4768 86.2857 44.1505 90.2484 49.8295ZM64.0024 42.6595C63.2024 38.9321 65.4111 35.2047 67.4683 32.8271C70.0968 29.9517 74.2484 28 77.8285 28C78.0571 31.7274 76.6087 35.383 74.0198 38.0454C71.6968 40.9209 67.6968 43.0855 64.0024 42.6595Z" fill="black"/>
</svg>
