<svg width="128" height="128" viewBox="0 0 128 128" fill="none" xmlns="http://www.w3.org/2000/svg">
<rect width="128" height="128" rx="12" fill="white"/>
<path d="M120.006 65.2437C120.006 60.6393 119.624 57.2793 118.799 53.7949H65.1484V74.5769H96.6402C96.0055 79.7415 92.577 87.5193 84.9578 92.7457L84.851 93.4414L101.814 106.32L102.99 106.435C113.783 96.6659 120.006 82.2925 120.006 65.2437Z" fill="#4285F4"/>
<path d="M65.145 120C80.5733 120 93.5255 115.022 102.986 106.435L84.9543 92.7461C80.129 96.0439 73.6527 98.3462 65.145 98.3462C50.034 98.3462 37.2088 88.5775 32.6369 75.0751L31.9668 75.1309L14.3281 88.5088L14.0974 89.1373C23.4941 107.431 42.7957 120 65.145 120Z" fill="#34A853"/>
<path d="M32.6403 75.0754C31.4339 71.591 30.7358 67.8574 30.7358 63.9998C30.7358 60.1418 31.4339 56.4086 32.5768 52.9242L32.5448 52.1822L14.685 38.5894L14.1007 38.8618C10.2279 46.453 8.00562 54.9776 8.00562 63.9998C8.00562 73.022 10.2279 81.5462 14.1007 89.1374L32.6403 75.0754Z" fill="#FBBC05"/>
<path d="M65.1453 29.6532C75.8753 29.6532 83.1132 34.1954 87.2404 37.9912L103.367 22.56C93.4629 13.5378 80.5736 8 65.1453 8C42.7958 8 23.4942 20.5688 14.0974 38.862L32.5736 52.9244C37.2089 39.4222 50.0342 29.6532 65.1453 29.6532Z" fill="#EB4335"/>
</svg>
