<svg width="128" height="128" viewBox="0 0 128 128" fill="none" xmlns="http://www.w3.org/2000/svg">
<rect width="128" height="128" rx="12" fill="white"/>
<path d="M74.2378 8.33064L74.1866 32.9728L74.1355 57.6149L71.7833 51.8944V51.8798L68.7322 106.738C71.7321 114.013 73.3344 117.9 73.3514 117.915C73.3685 117.93 75.073 118.018 77.1354 118.106C83.374 118.37 91.1124 118.942 96.993 119.572C98.3566 119.719 99.5157 119.792 99.6009 119.734C99.6861 119.675 99.7032 94.5928 99.6861 63.9808L99.635 8.33064H74.2378Z" fill="url(#paint0_linear_103_212)"/>
<path d="M28.2949 8.25689V63.9659C28.2949 94.6073 28.329 119.704 28.3801 119.748C28.4313 119.792 30.6301 119.602 33.2892 119.352C35.9482 119.103 39.6129 118.78 41.4368 118.648C44.2322 118.443 52.6184 117.988 53.5729 117.973C53.8627 117.973 53.8797 116.727 53.9138 94.3726L53.965 70.7718L55.9933 75.7003C56.3001 76.463 56.4024 76.6977 56.7092 77.4458L59.7603 22.6022C59.1126 21.0327 59.4535 21.8541 58.7206 20.0646C56.232 14.0067 54.1184 8.88761 54.0331 8.65292L53.8627 8.24222H28.2949V8.25689Z" fill="url(#paint1_linear_103_212)"/>
<path d="M28.2949 8.25689L53.948 70.8154V70.7861L55.9764 75.7145C67.2434 103.158 73.2944 117.885 73.3285 117.914C73.3456 117.929 75.0501 118.017 77.1126 118.105C83.3511 118.369 91.0897 118.941 96.9703 119.572C98.3169 119.718 99.493 119.792 99.5612 119.733L74.1296 57.5997V57.6143L71.7774 51.8939C69.4763 46.3054 67.9422 42.5651 58.6866 20.0645C56.198 14.0067 54.0844 8.8876 53.9992 8.65292L53.8287 8.24222H41.0618L28.2949 8.25689Z" fill="#E30A17"/>
<defs>
<linearGradient id="paint0_linear_103_212" x1="111.141" y1="91.6417" x2="70.4918" y2="109.493" gradientUnits="userSpaceOnUse">
<stop stop-color="#B20610"/>
<stop offset="0.255959" stop-color="#B20610"/>
<stop offset="1" stop-color="#590004"/>
</linearGradient>
<linearGradient id="paint1_linear_103_212" x1="15.9682" y1="32.6846" x2="59.9292" y2="13.6016" gradientUnits="userSpaceOnUse">
<stop stop-color="#B20610"/>
<stop offset="0.255959" stop-color="#B20610"/>
<stop offset="1" stop-color="#590004"/>
</linearGradient>
</defs>
</svg>
