<svg width="128" height="128" viewBox="0 0 128 128" fill="none" xmlns="http://www.w3.org/2000/svg">
<rect width="128" height="128" rx="12" fill="white"/>
<path d="M40.1771 115C25.3885 115 11.6031 110.786 0 103.516C9.8514 104.14 27.2369 102.645 38.0506 92.5406C21.7832 91.8093 14.4469 79.5872 13.49 74.3641C14.8722 74.8864 21.4642 75.5132 25.1855 74.0507C6.47268 69.4544 3.60196 53.3671 4.23989 48.4574C7.74856 50.86 13.7027 51.6957 16.0418 51.4868C-1.39523 39.2647 4.87783 20.8793 7.9612 16.9097C20.4746 33.8927 39.2284 43.431 62.4292 43.9615C61.9917 42.0821 61.7607 40.1254 61.7607 38.1156C61.7607 23.6924 73.6613 12 88.3415 12C96.0116 12 102.923 15.1919 107.775 20.2975C112.9 19.1209 120.614 16.3666 124.385 13.9848C122.484 20.6704 116.567 26.2475 112.987 28.3146C113.017 28.385 112.958 28.244 112.987 28.3146C116.131 27.8487 124.639 26.247 128 24.0132C126.338 27.7691 120.064 34.0139 114.915 37.5101C115.873 78.8965 83.5496 115 40.1771 115Z" fill="#47ACDF"/>
</svg>
