<svg width="465" height="465" viewBox="0 0 465 465" fill="none" xmlns="http://www.w3.org/2000/svg">
<path fill-rule="evenodd" clip-rule="evenodd" d="M464.595 232.174C464.595 360.285 360.741 464.139 232.631 464.139C104.52 464.139 0.666504 360.285 0.666504 232.174C0.666504 104.064 104.52 0.210449 232.631 0.210449C360.741 0.210449 464.595 104.064 464.595 232.174ZM290.622 145.188C290.622 177.216 264.659 203.179 232.631 203.179C200.603 203.179 174.64 177.216 174.64 145.188C174.64 113.16 200.603 87.197 232.631 87.197C264.659 87.197 290.622 113.16 290.622 145.188ZM232.629 261.17C174.129 261.17 123.722 295.82 100.809 345.712C132.713 382.719 179.936 406.148 232.63 406.148C285.324 406.148 332.546 382.722 364.45 345.715C341.538 295.82 291.129 261.17 232.629 261.17Z" fill="white"/>
</svg>
